<svg xmlns="http://www.w3.org/2000/svg" xmlns:xlink="http://www.w3.org/1999/xlink" width="45" zoomAndPan="magnify" viewBox="0 0 33.75 33.749998" height="45" preserveAspectRatio="xMidYMid meet" version="1.0"><defs><clipPath id="bfb1976311"><path d="M 14 5 L 32 5 L 32 33.5 L 14 33.5 Z M 14 5 " clip-rule="nonzero"/></clipPath><clipPath id="b6c3da65ea"><path d="M 0.335938 20 L 8 20 L 8 22 L 0.335938 22 Z M 0.335938 20 " clip-rule="nonzero"/></clipPath><clipPath id="407b942fff"><path d="M 0.335938 16 L 9 16 L 9 18 L 0.335938 18 Z M 0.335938 16 " clip-rule="nonzero"/></clipPath></defs><path fill="#ffffff" d="M 17.476562 31.003906 C 16.101562 31.003906 14.761719 30.761719 13.488281 30.292969 C 13.261719 30.207031 13.148438 29.960938 13.230469 29.734375 C 13.3125 29.511719 13.5625 29.398438 13.785156 29.480469 C 14.964844 29.917969 16.207031 30.136719 17.476562 30.136719 C 23.339844 30.136719 28.109375 25.367188 28.109375 19.503906 C 28.109375 13.640625 23.339844 8.871094 17.476562 8.871094 C 15.769531 8.871094 14.144531 9.261719 12.636719 10.03125 C 12.425781 10.140625 12.164062 10.058594 12.054688 9.84375 C 11.949219 9.632812 12.03125 9.371094 12.246094 9.261719 C 13.875 8.429688 15.632812 8.007812 17.476562 8.007812 C 23.816406 8.007812 28.972656 13.164062 28.972656 19.503906 C 28.972656 25.84375 23.816406 31.003906 17.476562 31.003906 Z M 17.476562 31.003906 " fill-opacity="1" fill-rule="nonzero"/><path fill="#ffffff" d="M 17.371094 12 C 17.132812 12 16.941406 11.804688 16.941406 11.566406 L 16.941406 8.480469 C 16.941406 8.242188 17.132812 8.046875 17.371094 8.046875 C 17.609375 8.046875 17.804688 8.242188 17.804688 8.480469 L 17.804688 11.566406 C 17.804688 11.804688 17.609375 12 17.371094 12 Z M 17.371094 12 " fill-opacity="1" fill-rule="nonzero"/><path fill="#ffffff" d="M 17.371094 31.003906 C 17.132812 31.003906 16.941406 30.808594 16.941406 30.570312 L 16.941406 27.484375 C 16.941406 27.246094 17.132812 27.050781 17.371094 27.050781 C 17.609375 27.050781 17.804688 27.246094 17.804688 27.484375 L 17.804688 30.570312 C 17.804688 30.808594 17.609375 31.003906 17.371094 31.003906 Z M 17.371094 31.003906 " fill-opacity="1" fill-rule="nonzero"/><path fill="#ffffff" d="M 25.03125 27.753906 C 24.917969 27.753906 24.804688 27.710938 24.71875 27.621094 L 22.570312 25.40625 C 22.402344 25.234375 22.410156 24.960938 22.578125 24.792969 C 22.75 24.628906 23.023438 24.632812 23.191406 24.804688 L 25.339844 27.019531 C 25.507812 27.191406 25.5 27.464844 25.332031 27.632812 C 25.246094 27.710938 25.136719 27.753906 25.03125 27.753906 Z M 25.03125 27.753906 " fill-opacity="1" fill-rule="nonzero"/><path fill="#ffffff" d="M 23.296875 14.570312 C 23.183594 14.570312 23.070312 14.527344 22.988281 14.4375 C 22.820312 14.269531 22.824219 13.996094 22.996094 13.828125 L 25.210938 11.679688 C 25.382812 11.511719 25.65625 11.515625 25.824219 11.6875 C 25.988281 11.859375 25.984375 12.132812 25.8125 12.300781 L 23.597656 14.449219 C 23.515625 14.53125 23.40625 14.570312 23.296875 14.570312 Z M 23.296875 14.570312 " fill-opacity="1" fill-rule="nonzero"/><path fill="#ffffff" d="M 28.378906 19.976562 L 25.035156 19.976562 C 24.796875 19.976562 24.605469 19.785156 24.605469 19.546875 C 24.605469 19.308594 24.796875 19.113281 25.035156 19.113281 L 28.378906 19.113281 C 28.617188 19.113281 28.808594 19.308594 28.808594 19.546875 C 28.808594 19.785156 28.617188 19.976562 28.378906 19.976562 Z M 28.378906 19.976562 " fill-opacity="1" fill-rule="nonzero"/><path fill="#ffffff" d="M 16.71875 1.902344 L 18.234375 1.902344 L 18.234375 5.996094 L 16.71875 5.996094 Z M 16.71875 1.902344 " fill-opacity="1" fill-rule="nonzero"/><path fill="#ffffff" d="M 18.234375 6.429688 L 16.71875 6.429688 C 16.480469 6.429688 16.285156 6.238281 16.285156 5.996094 L 16.285156 1.902344 C 16.285156 1.664062 16.480469 1.46875 16.71875 1.46875 L 18.234375 1.46875 C 18.472656 1.46875 18.664062 1.664062 18.664062 1.902344 L 18.664062 5.996094 C 18.664062 6.238281 18.472656 6.429688 18.234375 6.429688 Z M 17.148438 5.566406 L 17.800781 5.566406 L 17.800781 2.332031 L 17.148438 2.332031 Z M 17.148438 5.566406 " fill-opacity="1" fill-rule="nonzero"/><path fill="#ffffff" d="M 20.5 1.167969 C 20.5 1.574219 19.917969 1.902344 19.199219 1.902344 L 15.753906 1.902344 C 15.035156 1.902344 14.453125 1.570312 14.453125 1.167969 C 14.453125 0.761719 15.035156 0.433594 15.753906 0.433594 L 19.199219 0.433594 C 19.917969 0.433594 20.5 0.761719 20.5 1.167969 Z M 20.5 1.167969 " fill-opacity="1" fill-rule="nonzero"/><path fill="#ffffff" d="M 19.199219 2.332031 L 15.753906 2.332031 C 14.765625 2.332031 14.019531 1.832031 14.019531 1.167969 C 14.019531 0.5 14.765625 0 15.753906 0 L 19.199219 0 C 20.183594 0 20.929688 0.5 20.929688 1.167969 C 20.929688 1.832031 20.183594 2.332031 19.199219 2.332031 Z M 15.753906 0.863281 C 15.195312 0.863281 14.898438 1.097656 14.886719 1.167969 C 14.898438 1.234375 15.195312 1.46875 15.753906 1.46875 L 19.199219 1.46875 C 19.753906 1.46875 20.050781 1.234375 20.066406 1.164062 C 20.050781 1.097656 19.753906 0.863281 19.199219 0.863281 Z M 15.753906 0.863281 " fill-opacity="1" fill-rule="nonzero"/><path fill="#ffffff" d="M 29.179688 6.210938 L 30.265625 7.265625 L 27.410156 10.203125 L 26.324219 9.148438 Z M 29.179688 6.210938 " fill-opacity="1" fill-rule="nonzero"/><path fill="#ffffff" d="M 27.410156 10.632812 C 27.304688 10.632812 27.195312 10.59375 27.109375 10.511719 L 26.023438 9.457031 C 25.941406 9.375 25.894531 9.265625 25.890625 9.152344 C 25.890625 9.039062 25.933594 8.925781 26.015625 8.84375 L 28.871094 5.90625 C 29.035156 5.734375 29.308594 5.730469 29.480469 5.898438 L 30.566406 6.953125 C 30.648438 7.035156 30.695312 7.144531 30.699219 7.257812 C 30.699219 7.371094 30.65625 7.480469 30.574219 7.566406 L 27.722656 10.503906 C 27.636719 10.589844 27.523438 10.632812 27.410156 10.632812 Z M 26.9375 9.136719 L 27.402344 9.589844 L 29.65625 7.273438 L 29.1875 6.820312 Z M 26.9375 9.136719 " fill-opacity="1" fill-rule="nonzero"/><path fill="#ffffff" d="M 32.402344 8.316406 C 32.121094 8.605469 31.472656 8.4375 30.957031 7.9375 L 28.488281 5.535156 C 27.972656 5.035156 27.785156 4.394531 28.066406 4.101562 C 28.347656 3.8125 28.996094 3.980469 29.511719 4.480469 L 31.980469 6.882812 C 32.496094 7.382812 32.683594 8.023438 32.402344 8.316406 Z M 32.402344 8.316406 " fill-opacity="1" fill-rule="nonzero"/><path fill="#ffffff" d="M 32.019531 8.890625 C 31.582031 8.890625 31.070312 8.648438 30.65625 8.246094 L 28.1875 5.84375 C 27.882812 5.550781 27.664062 5.203125 27.5625 4.863281 C 27.4375 4.441406 27.511719 4.054688 27.757812 3.800781 C 27.929688 3.621094 28.167969 3.527344 28.449219 3.527344 C 28.886719 3.527344 29.394531 3.769531 29.8125 4.171875 L 32.28125 6.574219 C 32.992188 7.261719 33.175781 8.140625 32.710938 8.617188 C 32.539062 8.796875 32.300781 8.890625 32.019531 8.890625 Z M 28.449219 4.394531 C 28.402344 4.394531 28.378906 4.402344 28.375 4.40625 C 28.335938 4.464844 28.390625 4.835938 28.789062 5.226562 L 31.257812 7.625 C 31.542969 7.902344 31.847656 8.023438 32.019531 8.023438 C 32.066406 8.023438 32.089844 8.015625 32.09375 8.011719 C 32.132812 7.953125 32.078125 7.582031 31.679688 7.191406 L 29.210938 4.792969 C 28.925781 4.515625 28.621094 4.394531 28.449219 4.394531 Z M 28.449219 4.394531 " fill-opacity="1" fill-rule="nonzero"/><g clip-path="url(#bfb1976311)"><path fill="#ffffff" d="M 17.476562 33.484375 C 16.421875 33.484375 15.375 33.367188 14.355469 33.132812 C 14.125 33.082031 13.980469 32.851562 14.03125 32.617188 C 14.085938 32.382812 14.316406 32.238281 14.550781 32.292969 C 15.503906 32.507812 16.488281 32.621094 17.476562 32.621094 C 24.695312 32.621094 30.570312 26.746094 30.570312 19.523438 C 30.570312 12.304688 24.695312 6.429688 17.476562 6.429688 C 16.488281 6.429688 15.503906 6.539062 14.550781 6.757812 C 14.316406 6.8125 14.085938 6.664062 14.03125 6.433594 C 13.976562 6.199219 14.125 5.96875 14.355469 5.914062 C 15.375 5.683594 16.421875 5.566406 17.476562 5.566406 C 25.171875 5.566406 31.433594 11.828125 31.433594 19.523438 C 31.433594 27.222656 25.171875 33.484375 17.476562 33.484375 Z M 17.476562 33.484375 " fill-opacity="1" fill-rule="nonzero"/></g><path fill="#ffffff" d="M 17.476562 19.957031 C 17.394531 19.957031 17.316406 19.933594 17.25 19.890625 C 17.121094 19.8125 17.042969 19.675781 17.042969 19.523438 L 17.042969 13.425781 C 17.042969 13.1875 17.238281 12.992188 17.476562 12.992188 C 17.714844 12.992188 17.90625 13.1875 17.90625 13.425781 L 17.90625 18.824219 L 21.101562 17.230469 C 21.316406 17.121094 21.574219 17.207031 21.683594 17.421875 C 21.789062 17.636719 21.703125 17.894531 21.488281 18 L 17.667969 19.910156 C 17.609375 19.941406 17.542969 19.957031 17.476562 19.957031 Z M 17.476562 19.957031 " fill-opacity="1" fill-rule="nonzero"/><path fill="#ffffff" d="M 10.726562 11.140625 L 6.867188 11.140625 C 6.628906 11.140625 6.433594 10.945312 6.433594 10.707031 C 6.433594 10.46875 6.628906 10.273438 6.867188 10.273438 L 10.726562 10.273438 C 10.964844 10.273438 11.160156 10.46875 11.160156 10.707031 C 11.160156 10.945312 10.964844 11.140625 10.726562 11.140625 Z M 10.726562 11.140625 " fill-opacity="1" fill-rule="nonzero"/><path fill="#ffffff" d="M 11.710938 31.042969 L 7.847656 31.042969 C 7.609375 31.042969 7.414062 30.851562 7.414062 30.609375 C 7.414062 30.371094 7.609375 30.179688 7.847656 30.179688 L 11.710938 30.179688 C 11.949219 30.179688 12.140625 30.371094 12.140625 30.609375 C 12.140625 30.851562 11.949219 31.042969 11.710938 31.042969 Z M 11.710938 31.042969 " fill-opacity="1" fill-rule="nonzero"/><g clip-path="url(#b6c3da65ea)"><path fill="#ffffff" d="M 7.511719 21.183594 L 0.984375 21.183594 C 0.746094 21.183594 0.550781 20.988281 0.550781 20.75 C 0.550781 20.511719 0.746094 20.316406 0.984375 20.316406 L 7.511719 20.316406 C 7.753906 20.316406 7.945312 20.511719 7.945312 20.75 C 7.945312 20.988281 7.753906 21.183594 7.511719 21.183594 Z M 7.511719 21.183594 " fill-opacity="1" fill-rule="nonzero"/></g><path fill="#ffffff" d="M 7.996094 24.699219 L 1.464844 24.699219 C 1.226562 24.699219 1.035156 24.503906 1.035156 24.265625 C 1.035156 24.027344 1.226562 23.835938 1.464844 23.835938 L 7.996094 23.835938 C 8.234375 23.835938 8.429688 24.027344 8.429688 24.265625 C 8.429688 24.503906 8.234375 24.699219 7.996094 24.699219 Z M 7.996094 24.699219 " fill-opacity="1" fill-rule="nonzero"/><path fill="#ffffff" d="M 9.925781 28.179688 L 3.394531 28.179688 C 3.15625 28.179688 2.964844 27.984375 2.964844 27.746094 C 2.964844 27.507812 3.15625 27.3125 3.394531 27.3125 L 9.925781 27.3125 C 10.164062 27.3125 10.359375 27.507812 10.359375 27.746094 C 10.359375 27.984375 10.164062 28.179688 9.925781 28.179688 Z M 9.925781 28.179688 " fill-opacity="1" fill-rule="nonzero"/><path fill="#ffffff" d="M 8.796875 14.152344 L 2.648438 14.152344 C 2.410156 14.152344 2.21875 13.960938 2.21875 13.722656 C 2.21875 13.484375 2.410156 13.289062 2.648438 13.289062 L 8.796875 13.289062 C 9.035156 13.289062 9.230469 13.484375 9.230469 13.722656 C 9.230469 13.960938 9.035156 14.152344 8.796875 14.152344 Z M 8.796875 14.152344 " fill-opacity="1" fill-rule="nonzero"/><g clip-path="url(#407b942fff)"><path fill="#ffffff" d="M 7.722656 17.570312 L 0.773438 17.570312 C 0.535156 17.570312 0.339844 17.375 0.339844 17.136719 C 0.339844 16.898438 0.535156 16.707031 0.773438 16.707031 L 7.722656 16.707031 C 7.960938 16.707031 8.15625 16.898438 8.15625 17.136719 C 8.15625 17.375 7.960938 17.570312 7.722656 17.570312 Z M 7.722656 17.570312 " fill-opacity="1" fill-rule="nonzero"/></g></svg>