<svg xmlns="http://www.w3.org/2000/svg" xmlns:xlink="http://www.w3.org/1999/xlink" width="45" zoomAndPan="magnify" viewBox="0 0 33.75 33.749998" height="45" preserveAspectRatio="xMidYMid meet" version="1.0"><defs><clipPath id="394947aeda"><path d="M 0 1.128906 L 33.5 1.128906 L 33.5 32.398438 L 0 32.398438 Z M 0 1.128906 " clip-rule="nonzero"/></clipPath></defs><g clip-path="url(#394947aeda)"><path fill="#ffffff" d="M 22.683594 24.816406 L 16.445312 27.976562 C 16.253906 28.074219 16.019531 27.996094 15.921875 27.800781 C 15.824219 27.609375 15.902344 27.375 16.09375 27.277344 L 22.296875 24.136719 L 22.453125 24.039062 C 22.492188 24.007812 22.523438 23.972656 22.554688 23.9375 C 22.613281 23.859375 22.65625 23.765625 22.679688 23.660156 L 22.683594 23.648438 C 22.703125 23.546875 22.703125 23.445312 22.683594 23.355469 C 22.664062 23.261719 22.617188 23.167969 22.550781 23.082031 C 22.4375 22.933594 22.292969 22.816406 22.097656 22.75 C 21.882812 22.679688 21.597656 22.671875 21.226562 22.75 L 15.4375 24.007812 C 15.320312 24.035156 15.203125 24.003906 15.117188 23.933594 C 13.769531 23.050781 12.058594 22.136719 10.195312 21.753906 C 8.40625 21.382812 6.46875 21.503906 4.558594 22.621094 L 4.558594 30.359375 L 15.328125 31.386719 C 15.847656 31.445312 16.335938 31.433594 16.808594 31.347656 C 17.277344 31.261719 17.738281 31.101562 18.203125 30.859375 L 25.675781 27.015625 L 32.675781 19.929688 C 32.6875 19.910156 32.679688 19.863281 32.65625 19.804688 C 32.628906 19.722656 32.570312 19.636719 32.492188 19.5625 C 32.410156 19.476562 32.300781 19.40625 32.175781 19.359375 C 31.886719 19.25 31.496094 19.273438 31.054688 19.578125 C 31.042969 19.585938 31.027344 19.59375 31.015625 19.601562 L 22.890625 24.6875 C 22.828125 24.734375 22.757812 24.777344 22.683594 24.816406 Z M 17.757812 4.992188 C 19.472656 4.992188 21.023438 5.6875 22.148438 6.8125 C 23.273438 7.9375 23.96875 9.488281 23.96875 11.203125 C 23.96875 12.917969 23.273438 14.46875 22.148438 15.59375 C 21.023438 16.71875 19.472656 17.414062 17.757812 17.414062 C 16.042969 17.414062 14.492188 16.71875 13.367188 15.59375 C 12.242188 14.46875 11.546875 12.917969 11.546875 11.203125 C 11.546875 9.488281 12.242188 7.9375 13.367188 6.8125 C 14.492188 5.6875 16.042969 4.992188 17.757812 4.992188 Z M 21.59375 7.367188 C 20.613281 6.382812 19.257812 5.777344 17.757812 5.777344 C 16.257812 5.777344 14.902344 6.382812 13.921875 7.367188 C 12.9375 8.347656 12.332031 9.703125 12.332031 11.203125 C 12.332031 12.703125 12.9375 14.058594 13.921875 15.039062 C 14.902344 16.023438 16.257812 16.628906 17.757812 16.628906 C 19.257812 16.628906 20.613281 16.023438 21.59375 15.039062 C 22.574219 14.058594 23.183594 12.703125 23.183594 11.203125 C 23.183594 9.703125 22.574219 8.347656 21.59375 7.367188 Z M 17.347656 6.644531 C 17.339844 6.429688 17.511719 6.246094 17.726562 6.242188 C 17.941406 6.234375 18.121094 6.40625 18.125 6.621094 L 18.15625 7.585938 L 18.203125 7.601562 C 18.421875 7.664062 18.644531 7.761719 18.839844 7.886719 C 19.03125 8.007812 19.207031 8.160156 19.34375 8.335938 C 19.621094 8.679688 19.714844 9.058594 19.808594 9.433594 C 19.859375 9.640625 19.738281 9.847656 19.53125 9.90625 C 19.324219 9.960938 19.109375 9.839844 19.054688 9.628906 L 19.050781 9.621094 C 18.976562 9.324219 18.902344 9.03125 18.734375 8.820312 C 18.65625 8.722656 18.546875 8.628906 18.421875 8.550781 C 18.285156 8.464844 18.136719 8.398438 17.988281 8.355469 C 17.847656 8.3125 17.707031 8.296875 17.570312 8.304688 C 17.441406 8.3125 17.316406 8.34375 17.191406 8.398438 C 17.058594 8.460938 16.925781 8.550781 16.8125 8.660156 C 16.707031 8.765625 16.621094 8.886719 16.5625 9.015625 C 16.507812 9.140625 16.476562 9.28125 16.46875 9.421875 C 16.460938 9.578125 16.480469 9.738281 16.519531 9.875 C 16.554688 10 16.605469 10.105469 16.679688 10.195312 C 16.753906 10.289062 16.863281 10.375 17.003906 10.457031 C 17.234375 10.589844 17.558594 10.707031 17.875 10.824219 C 18.035156 10.878906 18.1875 10.9375 18.332031 10.996094 L 18.351562 11.003906 C 18.59375 11.101562 18.804688 11.199219 18.992188 11.316406 C 19.199219 11.449219 19.378906 11.597656 19.519531 11.78125 C 19.675781 11.976562 19.785156 12.210938 19.835938 12.464844 C 19.882812 12.703125 19.875 12.957031 19.800781 13.21875 C 19.730469 13.476562 19.589844 13.742188 19.410156 13.976562 C 19.234375 14.203125 19.015625 14.40625 18.773438 14.546875 C 18.570312 14.667969 18.351562 14.746094 18.128906 14.785156 L 18.15625 15.761719 C 18.164062 15.980469 17.992188 16.160156 17.777344 16.164062 C 17.5625 16.171875 17.382812 16 17.375 15.785156 L 17.347656 14.773438 C 17.296875 14.765625 17.246094 14.753906 17.199219 14.738281 C 16.953125 14.671875 16.722656 14.5625 16.527344 14.421875 C 16.320312 14.273438 16.144531 14.09375 16.019531 13.894531 C 15.773438 13.511719 15.714844 13.097656 15.65625 12.683594 C 15.652344 12.667969 15.652344 12.648438 15.652344 12.632812 C 15.652344 12.414062 15.824219 12.238281 16.042969 12.238281 C 16.25 12.238281 16.417969 12.398438 16.433594 12.605469 C 16.480469 12.921875 16.527344 13.238281 16.675781 13.472656 C 16.75 13.589844 16.855469 13.695312 16.980469 13.78125 C 17.105469 13.871094 17.25 13.941406 17.40625 13.984375 C 17.570312 14.03125 17.746094 14.046875 17.921875 14.027344 C 18.078125 14.007812 18.234375 13.957031 18.375 13.875 C 18.53125 13.78125 18.675781 13.648438 18.792969 13.496094 C 18.914062 13.34375 19.003906 13.171875 19.046875 13.011719 C 19.085938 12.871094 19.089844 12.738281 19.066406 12.617188 L 19.066406 12.613281 C 19.042969 12.484375 18.984375 12.367188 18.902344 12.261719 C 18.820312 12.15625 18.710938 12.0625 18.578125 11.980469 C 18.429688 11.886719 18.253906 11.804688 18.0625 11.726562 L 18.042969 11.722656 C 17.902344 11.664062 17.757812 11.613281 17.609375 11.558594 C 17.261719 11.429688 16.902344 11.300781 16.617188 11.136719 C 16.386719 11.007812 16.207031 10.855469 16.070312 10.683594 C 15.925781 10.507812 15.828125 10.3125 15.765625 10.089844 C 15.703125 9.875 15.675781 9.628906 15.6875 9.378906 C 15.699219 9.148438 15.753906 8.914062 15.847656 8.695312 C 15.949219 8.472656 16.09375 8.273438 16.265625 8.101562 C 16.445312 7.925781 16.65625 7.785156 16.871094 7.683594 C 17.035156 7.613281 17.203125 7.5625 17.371094 7.539062 Z M 27.207031 7.753906 C 27.601562 8.832031 27.816406 9.992188 27.816406 11.203125 C 27.816406 16.757812 23.3125 21.261719 17.757812 21.261719 C 15.421875 21.261719 13.277344 20.464844 11.570312 19.128906 L 10.539062 20.027344 C 10.449219 20.105469 10.328125 20.128906 10.21875 20.082031 C 10.105469 20.039062 10.035156 19.945312 10.019531 19.824219 L 9.609375 16.15625 C 9.597656 16.046875 9.636719 15.949219 9.722656 15.878906 C 9.808594 15.808594 9.914062 15.789062 10.015625 15.824219 L 13.410156 16.894531 C 13.523438 16.929688 13.601562 17.015625 13.625 17.128906 C 13.648438 17.242188 13.613281 17.351562 13.523438 17.429688 L 12.625 18.214844 C 14.0625 19.269531 15.835938 19.894531 17.757812 19.894531 C 22.558594 19.894531 26.449219 16.003906 26.449219 11.203125 C 26.449219 10.230469 26.289062 9.292969 25.992188 8.421875 C 25.949219 8.289062 25.992188 8.148438 26.105469 8.066406 L 26.726562 7.609375 C 26.808594 7.550781 26.90625 7.53125 27.003906 7.5625 C 27.101562 7.589844 27.171875 7.660156 27.207031 7.753906 Z M 17.757812 1.144531 C 20.089844 1.144531 22.238281 1.941406 23.945312 3.277344 L 24.976562 2.378906 C 25.066406 2.300781 25.183594 2.277344 25.296875 2.324219 C 25.410156 2.367188 25.480469 2.460938 25.496094 2.582031 L 25.90625 6.25 C 25.917969 6.359375 25.878906 6.457031 25.792969 6.527344 C 25.707031 6.597656 25.601562 6.617188 25.5 6.582031 L 22.101562 5.511719 C 21.992188 5.476562 21.914062 5.390625 21.890625 5.277344 C 21.867188 5.164062 21.902344 5.054688 21.992188 4.976562 L 22.890625 4.191406 C 21.453125 3.136719 19.679688 2.511719 17.757812 2.511719 C 12.957031 2.511719 9.066406 6.402344 9.066406 11.203125 C 9.066406 12.175781 9.226562 13.113281 9.523438 13.984375 C 9.566406 14.117188 9.523438 14.257812 9.410156 14.339844 L 8.789062 14.796875 C 8.707031 14.855469 8.609375 14.875 8.511719 14.84375 C 8.414062 14.816406 8.34375 14.746094 8.308594 14.652344 C 7.914062 13.574219 7.699219 12.414062 7.699219 11.203125 C 7.699219 5.648438 12.203125 1.144531 17.757812 1.144531 Z M 23.476562 23.398438 L 30.609375 18.933594 C 31.300781 18.460938 31.949219 18.4375 32.449219 18.628906 C 32.683594 18.714844 32.882812 18.847656 33.042969 19.003906 C 33.203125 19.164062 33.324219 19.351562 33.394531 19.539062 C 33.511719 19.867188 33.480469 20.203125 33.257812 20.449219 L 26.191406 27.609375 C 26.160156 27.640625 26.125 27.664062 26.089844 27.683594 L 18.5625 31.558594 C 18.03125 31.832031 17.5 32.015625 16.949219 32.117188 C 16.398438 32.21875 15.835938 32.234375 15.242188 32.164062 L 4.449219 31.132812 C 4.359375 31.390625 4.207031 31.625 4.019531 31.8125 C 3.683594 32.148438 3.226562 32.355469 2.71875 32.355469 L 2.71875 32.351562 L 1.117188 32.351562 L 1.117188 32.355469 C 0.808594 32.355469 0.53125 32.226562 0.328125 32.027344 C 0.125 31.824219 0 31.546875 0 31.238281 L 0 22.402344 C 0 22.09375 0.125 21.816406 0.328125 21.613281 C 0.53125 21.410156 0.808594 21.285156 1.117188 21.285156 L 3.441406 21.285156 C 3.75 21.285156 4.027344 21.410156 4.230469 21.613281 C 4.292969 21.675781 4.347656 21.742188 4.394531 21.816406 C 6.417969 20.707031 8.464844 20.597656 10.351562 20.988281 C 12.28125 21.386719 14.035156 22.304688 15.429688 23.207031 L 21.058594 21.984375 C 21.582031 21.875 21.996094 21.894531 22.339844 22.007812 C 22.699219 22.125 22.964844 22.339844 23.171875 22.601562 C 23.308594 22.78125 23.402344 22.976562 23.445312 23.1875 C 23.460938 23.253906 23.472656 23.328125 23.476562 23.398438 Z M 3.441406 22.070312 L 1.117188 22.070312 C 1.023438 22.070312 0.941406 22.109375 0.882812 22.167969 C 0.820312 22.226562 0.785156 22.3125 0.785156 22.402344 L 0.785156 31.238281 C 0.785156 31.328125 0.820312 31.410156 0.882812 31.472656 C 0.941406 31.53125 1.023438 31.570312 1.117188 31.570312 L 2.71875 31.570312 C 3.007812 31.570312 3.273438 31.449219 3.464844 31.257812 C 3.65625 31.066406 3.773438 30.804688 3.773438 30.515625 L 3.773438 22.402344 C 3.773438 22.3125 3.738281 22.226562 3.675781 22.167969 C 3.617188 22.105469 3.535156 22.070312 3.441406 22.070312 Z M 3.441406 22.070312 " fill-opacity="1" fill-rule="nonzero"/></g></svg>