<svg xmlns="http://www.w3.org/2000/svg" xmlns:xlink="http://www.w3.org/1999/xlink" width="45" zoomAndPan="magnify" viewBox="0 0 33.75 33.749998" height="45" preserveAspectRatio="xMidYMid meet" version="1.0"><defs><clipPath id="c21addaf98"><path d="M 0.398438 0 L 33 0 L 33 33.5 L 0.398438 33.5 Z M 0.398438 0 " clip-rule="nonzero"/></clipPath></defs><g clip-path="url(#c21addaf98)"><path fill="#ffffff" d="M 5.527344 19.070312 C 4.464844 18.4375 2.902344 17.339844 1.800781 16.058594 C 0.996094 15.121094 0.441406 14.078125 0.425781 13.046875 L 0.425781 13.042969 C 0.394531 11.5 1.265625 10.390625 2.453125 9.984375 C 3.148438 9.75 3.96875 9.753906 4.785156 10.082031 C 4.929688 9.859375 5.101562 9.648438 5.308594 9.457031 C 6.378906 8.449219 6.855469 8.078125 7.136719 7.59375 C 7.417969 7.105469 7.5 6.507812 7.832031 5.074219 C 8.164062 3.671875 9.332031 2.695312 10.769531 2.613281 C 12.238281 2.53125 12.84375 2.554688 13.371094 2.359375 C 13.898438 2.167969 14.347656 1.761719 15.527344 0.882812 C 16.679688 0.0195312 18.199219 0.0195312 19.355469 0.882812 C 20.535156 1.761719 20.980469 2.167969 21.507812 2.359375 C 22.039062 2.554688 22.640625 2.53125 24.109375 2.613281 C 25.550781 2.695312 26.71875 3.671875 27.042969 5.074219 C 27.378906 6.507812 27.460938 7.105469 27.742188 7.59375 C 28.023438 8.078125 28.5 8.449219 29.574219 9.457031 C 30.453125 10.28125 30.78125 11.46875 30.484375 12.589844 C 31.285156 12.628906 32.089844 12.671875 32.089844 12.671875 C 32.804688 12.703125 33.09375 13.605469 32.539062 14.046875 L 30.199219 15.929688 C 30.382812 16.605469 30.984375 18.824219 30.984375 18.824219 C 31.175781 19.507812 30.414062 20.066406 29.816406 19.679688 L 29.300781 19.339844 C 29.074219 20.304688 28.410156 21.117188 27.445312 21.527344 C 27.253906 21.609375 27.082031 21.683594 26.917969 21.75 L 29.816406 28.507812 C 29.894531 28.691406 29.863281 28.90625 29.738281 29.058594 C 29.609375 29.214844 29.410156 29.285156 29.214844 29.246094 C 29.214844 29.246094 25.253906 28.4375 25.253906 28.4375 L 23.125 31.867188 C 23.015625 32.039062 22.824219 32.136719 22.625 32.121094 C 22.425781 32.105469 22.25 31.980469 22.171875 31.792969 L 19.734375 26.019531 C 18.496094 25.640625 17.96875 25.4375 17.4375 25.4375 C 17.074219 25.4375 16.710938 25.535156 16.113281 25.71875 L 12.609375 33.171875 C 12.527344 33.351562 12.347656 33.46875 12.148438 33.476562 C 11.949219 33.488281 11.761719 33.382812 11.660156 33.210938 C 11.660156 33.210938 9.632812 29.71875 9.632812 29.71875 L 5.652344 30.414062 C 5.453125 30.449219 5.253906 30.371094 5.132812 30.214844 C 5.011719 30.054688 4.988281 29.84375 5.074219 29.660156 L 8.617188 22.023438 C 8.304688 21.890625 7.917969 21.734375 7.433594 21.527344 C 6.378906 21.078125 5.683594 20.152344 5.527344 19.070312 Z M 5.722656 10.609375 C 5.800781 10.667969 5.875 10.726562 5.949219 10.789062 C 7.117188 9.816406 8.417969 9.636719 9.445312 9.984375 C 9.652344 10.054688 9.851562 10.148438 10.035156 10.257812 C 11.21875 7.332031 14.09375 5.253906 17.4375 5.253906 C 21.597656 5.253906 25.027344 8.464844 25.386719 12.527344 L 25.511719 12.523438 C 25.757812 11.871094 26.578125 9.71875 26.578125 9.71875 C 26.828125 9.050781 27.773438 9.050781 28.027344 9.71875 L 29.09375 12.523438 C 29.167969 12.527344 29.265625 12.53125 29.375 12.535156 C 29.683594 11.734375 29.480469 10.839844 28.839844 10.242188 C 27.636719 9.109375 27.128906 8.675781 26.8125 8.128906 C 26.5 7.582031 26.375 6.921875 26 5.316406 C 26 5.316406 26 5.316406 25.996094 5.316406 C 25.78125 4.386719 25.007812 3.738281 24.050781 3.683594 C 22.40625 3.589844 21.734375 3.585938 21.144531 3.367188 C 20.550781 3.152344 20.03125 2.726562 18.710938 1.742188 C 17.945312 1.167969 16.933594 1.167969 16.167969 1.742188 C 14.847656 2.726562 14.328125 3.152344 13.738281 3.367188 C 13.144531 3.585938 12.476562 3.589844 10.832031 3.683594 C 9.875 3.738281 9.097656 4.386719 8.878906 5.316406 C 8.503906 6.921875 8.378906 7.582031 8.066406 8.128906 C 7.75 8.671875 7.242188 9.109375 6.039062 10.242188 C 5.917969 10.355469 5.8125 10.480469 5.722656 10.609375 Z M 10.886719 11.042969 C 11.269531 11.574219 11.492188 12.25 11.476562 13.042969 L 11.476562 13.046875 C 11.464844 13.742188 11.207031 14.445312 10.792969 15.121094 C 11.617188 18.011719 14.289062 20.140625 17.4375 20.140625 C 20.429688 20.140625 22.984375 18.226562 23.941406 15.558594 C 23.203125 14.964844 22.0625 14.046875 22.066406 14.046875 C 21.507812 13.605469 21.796875 12.703125 22.511719 12.671875 L 24.316406 12.582031 C 23.984375 9.082031 21.023438 6.328125 17.4375 6.328125 C 14.398438 6.328125 11.808594 8.308594 10.886719 11.042969 Z M 10.015625 16.15625 C 8.996094 17.3125 7.613281 18.3125 6.59375 18.9375 C 6.703125 19.644531 7.164062 20.246094 7.855469 20.542969 C 9.371094 21.191406 10 21.429688 10.480469 21.832031 C 10.964844 22.238281 11.304688 22.816406 12.207031 24.199219 C 12.730469 24.996094 13.683594 25.34375 14.601562 25.066406 C 16.175781 24.589844 16.808594 24.367188 17.4375 24.367188 C 18.066406 24.367188 18.703125 24.589844 20.277344 25.066406 C 20.28125 25.066406 20.28125 25.066406 20.28125 25.066406 C 21.195312 25.34375 22.148438 24.996094 22.671875 24.199219 C 23.574219 22.816406 23.914062 22.238281 24.398438 21.832031 C 24.878906 21.429688 25.507812 21.191406 27.023438 20.542969 C 27.792969 20.214844 28.277344 19.503906 28.308594 18.695312 L 27.300781 18.035156 L 24.789062 19.679688 C 24.195312 20.066406 23.433594 19.511719 23.617188 18.828125 C 23.617188 18.828125 23.714844 18.460938 23.847656 17.980469 C 22.390625 19.941406 20.058594 21.214844 17.4375 21.214844 C 14.074219 21.214844 11.183594 19.113281 10.015625 16.15625 Z M 25.929688 22.167969 C 25.558594 22.332031 25.304688 22.472656 25.085938 22.65625 C 24.65625 23.015625 24.375 23.550781 23.570312 24.785156 C 22.976562 25.691406 22.015625 26.210938 20.988281 26.234375 C 21.597656 27.675781 22.757812 30.421875 22.757812 30.421875 L 24.542969 27.554688 C 24.660156 27.363281 24.882812 27.265625 25.105469 27.308594 L 28.425781 27.988281 Z M 14.730469 26.140625 C 13.40625 26.464844 12.0625 25.933594 11.3125 24.785156 C 10.503906 23.550781 10.222656 23.015625 9.792969 22.652344 C 9.726562 22.597656 9.65625 22.546875 9.578125 22.496094 L 6.476562 29.183594 L 9.816406 28.597656 C 10.035156 28.558594 10.257812 28.660156 10.371094 28.855469 C 10.371094 28.855469 12.074219 31.789062 12.074219 31.789062 Z M 23.359375 13.707031 C 24.09375 14.300781 25.230469 15.210938 25.230469 15.210938 C 25.476562 15.40625 25.578125 15.710938 25.496094 16.015625 C 25.496094 16.019531 25.496094 16.019531 25.496094 16.019531 L 24.863281 18.34375 C 25.65625 17.824219 26.875 17.027344 26.875 17.027344 C 27.140625 16.851562 27.460938 16.851562 27.726562 17.027344 C 27.726562 17.027344 28.945312 17.824219 29.738281 18.339844 L 29.105469 16.019531 C 29.105469 16.019531 29.105469 16.019531 29.105469 16.015625 C 29.027344 15.710938 29.125 15.40625 29.375 15.210938 L 31.246094 13.707031 L 28.839844 13.589844 C 28.527344 13.574219 28.269531 13.386719 28.15625 13.089844 L 27.300781 10.839844 L 26.445312 13.089844 C 26.335938 13.386719 26.078125 13.574219 25.761719 13.589844 Z M 5.949219 18.074219 C 6.929688 17.480469 8.308594 16.5 9.285156 15.359375 C 9.917969 14.625 10.390625 13.832031 10.40625 13.027344 C 10.425781 12.011719 9.878906 11.265625 9.101562 11 C 8.277344 10.722656 7.238281 10.972656 6.332031 11.894531 C 6.230469 11.996094 6.09375 12.054688 5.949219 12.054688 C 5.804688 12.054688 5.667969 11.996094 5.566406 11.894531 C 4.664062 10.972656 3.621094 10.71875 2.800781 11 C 2.019531 11.265625 1.476562 12.011719 1.496094 13.027344 C 1.511719 13.832031 1.984375 14.625 2.617188 15.359375 C 3.59375 16.5 4.972656 17.480469 5.949219 18.074219 Z M 16.371094 13.191406 L 19.941406 9.582031 C 20.617188 8.902344 21.722656 8.898438 22.402344 9.574219 C 23.082031 10.253906 23.085938 11.351562 22.410156 12.035156 C 20.808594 13.652344 19.21875 15.277344 17.605469 16.890625 C 16.929688 17.570312 15.824219 17.570312 15.144531 16.890625 C 15.144531 16.890625 12.472656 14.21875 12.476562 14.21875 C 11.792969 13.539062 11.792969 12.4375 12.472656 11.757812 C 13.152344 11.078125 14.257812 11.074219 14.9375 11.757812 Z M 15.992188 14.332031 L 14.179688 12.515625 C 13.917969 12.253906 13.496094 12.253906 13.234375 12.515625 C 12.972656 12.777344 12.972656 13.199219 13.234375 13.460938 L 15.902344 16.128906 C 16.164062 16.390625 16.585938 16.390625 16.847656 16.128906 C 18.457031 14.523438 20.046875 12.894531 21.648438 11.277344 C 21.90625 11.015625 21.90625 10.597656 21.648438 10.335938 C 21.386719 10.078125 20.964844 10.078125 20.707031 10.339844 L 16.753906 14.328125 C 16.65625 14.429688 16.519531 14.488281 16.375 14.488281 C 16.230469 14.488281 16.09375 14.433594 15.992188 14.332031 Z M 15.992188 14.332031 " fill-opacity="1" fill-rule="evenodd"/></g></svg>